<svg xmlns="http://www.w3.org/2000/svg" viewBox="0 0 32 32" fill="#3584e4">
  <g transform="scale(0.05, -0.05) translate(0, -320)">
    <path d="M2940 2726 c-25 -7 -74 -25 -110 -41 -36 -15 -81 -35 -100 -43 -395 -168 -414 -177 -437 -211 -22 -32 -23 -43 -23 -212 0 -137 -3 -179 -12 -179 -9 0 -8 -4 2 -11 13 -9 12 -10 -2 -5 -22 7 -48 -29 -48 -65 0 -114 370 -239 875 -295 259 -29 695 -18 730 18 7 7 -20 7 -85 1 -148 -13 -567 -10 -594 5 -14 8 17 22 51 22 23 0 37 7 48 24 12 17 23 23 38 20 40 -8 311 -5 405 5 95 10 133 25 152 61 21 39 15 183 -9 228 -6 11 -11 33 -11 49 0 37 -33 90 -69 111 -16 9 -36 28 -45 42 -8 14 -26 37 -39 51 -13 13 -36 41 -51 61 l-28 37 38 16 c58 24 74 43 74 87 0 84 -59 154 -143 169 -23 4 -62 12 -87 17 -40 9 -123 23 -215 36 -90 13 -263 14 -305 2z m190 -34 c19 -9 49 -37 67 -62 18 -25 37 -50 42 -56 5 -6 75 -16 157 -23 82 -6 164 -14 182 -17 19 -3 32 -1 32 6 0 21 -30 68 -56 89 -34 27 -10 27 34 1 44 -27 72 -76 72 -127 l0 -42 -57 -16 c-48 -14 -81 -16 -188 -10 -220 12 -238 25 -28 20 196 -5 268 7 120 19 -340 29 -296 30 -472 -10 -88 -20 -163 -42 -168 -48 -4 -6 -6 -131 -5 -279 2 -173 -1 -267 -7 -267 -5 0 -81 7 -167 17 -139 14 -158 18 -158 34 0 30 -21 66 -45 77 -31 14 -65 -10 -65 -45 0 -25 -1 -25 -52 -19 -60 8 -69 17 -66 66 l3 35 102 10 c140 14 144 29 6 20 l-113 -8 0 161 c0 178 6 203 54 226 70 32 467 201 546 232 99 38 175 44 230 16z m216 -17 c79 -13 152 -29 163 -34 21 -12 74 -71 68 -78 -2 -2 -75 4 -161 14 l-157 18 -21 33 c-11 18 -36 44 -57 58 -36 26 -36 26 -7 19 16 -3 94 -17 172 -30z m-258 -296 c9 -16 38 -63 63 -103 l46 -72 144 -19 c158 -20 281 -25 345 -12 38 8 44 6 68 -20 31 -33 32 -44 6 -68 -11 -10 -20 -27 -20 -38 0 -16 5 -19 29 -14 l29 6 7 -79 c9 -98 1 -138 -30 -150 -49 -19 -234 -32 -372 -27 -79 2 -146 7 -149 10 -3 2 -10 36 -16 73 -13 85 -30 119 -68 139 -83 43 -170 -18 -170 -121 0 -36 -1 -36 -52 -30 -60 8 -69 17 -66 66 l3 35 102 10 c140 14 144 29 6 20 l-113 -8 0 161 c0 178 6 203 54 226 70 32 467 201 546 232 99 38 175 44 230 16z"/>
  </g>
</svg>